<?xml version="1.0" encoding="UTF-8"?>
<!DOCTYPE svg PUBLIC "-//W3C//DTD SVG 1.1//EN" "http://www.w3.org/Graphics/SVG/1.1/DTD/svg11.dtd">
<svg xmlns="http://www.w3.org/2000/svg" version="1.1" width="309px" height="305px" style="shape-rendering:geometricPrecision; text-rendering:geometricPrecision; image-rendering:optimizeQuality; fill-rule:evenodd; clip-rule:evenodd" xmlns:xlink="http://www.w3.org/1999/xlink">
<g><path style="opacity:0.7" fill="#ff4b40" d="M 151.5,8.5 C 152.449,7.84761 153.615,7.51428 155,7.5C 159.489,8.09886 163.989,8.59886 168.5,9C 170.78,9.23263 172.78,10.066 174.5,11.5C 174,11.8333 173.5,12.1667 173,12.5C 165.693,11.5254 158.526,10.1921 151.5,8.5 Z"/></g>
<g><path style="opacity:0.978" fill="#ff4a3f" d="M 199.5,17.5 C 199.33,18.8221 199.663,19.9887 200.5,21C 198.405,21.5556 198.238,22.0556 200,22.5C 204.044,19.5754 207.377,20.242 210,24.5C 233.954,18.3094 250.954,26.6428 261,49.5C 261.945,53.1141 262.612,56.7808 263,60.5C 263.383,61.056 263.883,61.3893 264.5,61.5C 272.163,75.1584 278.996,89.1584 285,103.5C 285.67,110.065 287.17,116.398 289.5,122.5C 288.705,128.015 289.539,133.348 292,138.5C 292.27,151.234 293.27,163.9 295,176.5C 297.372,167.509 298.372,167.843 298,177.5C 299.809,173.076 300.809,168.41 301,163.5C 301.687,161.445 302.854,159.779 304.5,158.5C 306.392,160.871 306.725,163.371 305.5,166C 306.527,166.513 307.527,167.013 308.5,167.5C 308.5,169.5 308.5,171.5 308.5,173.5C 307.365,182.732 305.198,192.065 302,201.5C 299.816,206.375 297.816,211.375 296,216.5C 294.672,219.161 292.672,221.161 290,222.5C 289.5,222.167 289,221.833 288.5,221.5C 289.59,220.391 289.59,219.391 288.5,218.5C 287.5,219.167 286.5,219.833 285.5,220.5C 285.167,220 284.833,219.5 284.5,219C 285.994,216.361 286.661,213.528 286.5,210.5C 283.723,215.006 282.223,220.006 282,225.5C 281.25,226.126 280.416,226.626 279.5,227C 280.022,227.561 280.355,228.228 280.5,229C 278.284,233.644 276.45,238.477 275,243.5C 273.333,245.833 271.667,248.167 270,250.5C 269.667,253.167 269.333,255.833 269,258.5C 262.296,259.545 256.13,261.879 250.5,265.5C 249.231,255.66 248.064,245.66 247,235.5C 245.971,231.111 244.138,227.111 241.5,223.5C 240.679,226.447 240.179,229.447 240,232.5C 235.62,216.314 230.62,200.314 225,184.5C 221.088,176.343 216.922,168.343 212.5,160.5C 241.404,135.296 249.571,104.63 237,68.5C 226.467,47.9777 209.967,34.8111 187.5,29C 180.196,27.7826 172.862,26.7826 165.5,26C 143.137,25.0909 120.804,25.4243 98.5,27C 93.9372,27.9004 90.1039,30.0671 87,33.5C 86.1397,37.9521 87.6397,41.4521 91.5,44C 90.9558,44.7172 90.2891,45.2172 89.5,45.5C 88.8333,47.8333 88.1667,50.1667 87.5,52.5C 87.5,49.8333 87.5,47.1667 87.5,44.5C 84.4392,44.4443 82.2725,45.7776 81,48.5C 79.1401,76.1343 77.3067,103.801 75.5,131.5C 71.8945,131.799 68.5612,132.965 65.5,135C 63.0092,137.968 62.8426,141.135 65,144.5C 67.1301,147.23 69.7968,149.23 73,150.5C 73.9347,188.787 74.6014,227.12 75,265.5C 74.526,272.57 76.3594,278.904 80.5,284.5C 73.653,282.16 66.9864,279.327 60.5,276C 56.2733,272.263 51.94,268.763 47.5,265.5C 46.7934,263.866 45.6268,262.532 44,261.5C 43.586,261.957 43.086,262.291 42.5,262.5C 41.4096,261.273 40.0762,260.44 38.5,260C 36.9632,258.89 36.2965,257.39 36.5,255.5C 35.5,255.5 34.5,255.5 33.5,255.5C 32.7451,252.483 30.9118,250.149 28,248.5C 27.3828,247.551 27.5494,246.718 28.5,246C 25.6667,243.167 22.8333,240.333 20,237.5C 9.74855,217.127 2.91521,195.794 -0.5,173.5C -0.5,165.167 -0.5,156.833 -0.5,148.5C 0.482236,147.859 1.48224,147.193 2.5,146.5C 3.35535,151.873 4.35535,157.207 5.5,162.5C 6.5,162.5 7.5,162.5 8.5,162.5C 8.21231,156.771 8.54564,151.104 9.5,145.5C 8.67504,144.614 7.67504,144.281 6.5,144.5C 6.49804,140.651 4.66471,137.985 1,136.5C 0.333333,130.833 0.333333,125.167 1,119.5C 3.20275,115.429 4.53609,111.096 5,106.5C 8.05267,103.678 10.5527,104.011 12.5,107.5C 11.5934,110.421 11.2601,113.421 11.5,116.5C 12.5,116.5 13.5,116.5 14.5,116.5C 18.4823,104.203 23.8156,92.5364 30.5,81.5C 30.3333,80.8333 30.1667,80.1667 30,79.5C 28.2854,81.7594 26.4521,83.9261 24.5,86C 25.0219,86.5613 25.3552,87.228 25.5,88C 24.6831,89.49 23.8498,90.99 23,92.5C 22.1978,87.7782 20.6978,87.9448 18.5,93C 17.5509,93.6172 16.7175,93.4506 16,92.5C 16.3052,89.5091 16.9719,86.5091 18,83.5C 23.5111,69.4729 32.1777,57.8063 44,48.5C 45.3317,43.6674 48.4984,41.3341 53.5,41.5C 51.1411,44.3945 52.1411,45.2279 56.5,44C 56.1667,43.6667 55.8333,43.3333 55.5,43C 58.9272,41.0909 62.2605,38.9242 65.5,36.5C 73.3558,32.1656 81.3558,27.9989 89.5,24C 90.5,23 91.5,22 92.5,21C 89.4985,19.5533 86.9985,20.3866 85,23.5C 84.586,23.0426 84.086,22.7093 83.5,22.5C 80.5963,24.12 77.5963,25.4533 74.5,26.5C 75.6728,24.4959 77.3395,22.9959 79.5,22C 86.723,19.9256 93.723,17.2589 100.5,14C 116.515,9.66253 132.848,8.3292 149.5,10C 147.196,10.8952 144.862,11.7285 142.5,12.5C 145.224,14.5398 148.224,15.3731 151.5,15C 151.167,14.6667 150.833,14.3333 150.5,14C 153.57,11.7303 156.237,12.0636 158.5,15C 154.576,15.7985 154.576,16.2985 158.5,16.5C 160.135,16.1223 161.635,15.4556 163,14.5C 165.408,16.9347 168.408,18.268 172,18.5C 176.126,18.7773 180.292,18.2773 184.5,17C 185.833,16 185.833,15 184.5,14C 186.289,13.4795 187.956,13.8129 189.5,15C 188.66,16.6665 189.16,16.8331 191,15.5C 193.778,16.3253 196.611,16.992 199.5,17.5 Z M 92.5,19.5 C 93.3864,18.2241 94.3864,18.2241 95.5,19.5C 94.5754,20.5624 93.5754,20.5624 92.5,19.5 Z M 46.5,50.5 C 46.7828,49.7109 47.2828,49.0442 48,48.5C 48.5281,49.816 48.0281,50.4827 46.5,50.5 Z M 27.5,70.5 C 28.552,70.3505 29.552,70.5172 30.5,71C 26.2825,75.8737 25.2825,75.7071 27.5,70.5 Z M 3.5,163.5 C 5.772,163.911 6.10533,165.078 4.5,167C 4.90536,167.945 5.57203,168.612 6.5,169C 6.21689,172.137 5.88356,175.304 5.5,178.5C 4.25938,173.575 3.59271,168.575 3.5,163.5 Z M 288.5,204.5 C 291.021,196.069 292.854,187.402 294,178.5C 294.309,179.766 294.809,180.933 295.5,182C 294.728,190.064 292.395,197.564 288.5,204.5 Z M 288.5,204.5 C 288.946,207.01 288.28,209.01 286.5,210.5C 286.595,208.214 287.262,206.214 288.5,204.5 Z"/></g>
<g><path style="opacity:0.008" fill="#ff6d22" d="M 175.5,12.5 C 175.897,11.475 176.563,11.3083 177.5,12C 176.906,12.4643 176.239,12.631 175.5,12.5 Z"/></g>
<g><path style="opacity:0.125" fill="#fe483f" d="M 180.5,14.5 C 181.251,13.4265 182.251,13.2599 183.5,14C 182.552,14.4828 181.552,14.6495 180.5,14.5 Z"/></g>
<g><path style="opacity:0.004" fill="#ff5208" d="M 199.5,17.5 C 204.047,18.6913 208.547,20.0246 213,21.5C 243.172,18.1786 260.339,31.512 264.5,61.5C 263.883,61.3893 263.383,61.056 263,60.5C 262.612,56.7808 261.945,53.1141 261,49.5C 250.954,26.6428 233.954,18.3094 210,24.5C 207.377,20.242 204.044,19.5754 200,22.5C 198.238,22.0556 198.405,21.5556 200.5,21C 199.663,19.9887 199.33,18.8221 199.5,17.5 Z"/></g>
<g><path style="opacity:0.998" fill="#fffdfd" d="M 250.5,265.5 C 251.358,271.816 251.524,278.15 251,284.5C 249.294,285.308 248.461,286.641 248.5,288.5C 238.109,288.386 227.776,289.052 217.5,290.5C 214.713,289.523 211.713,289.19 208.5,289.5C 205.748,266.825 201.248,244.492 195,222.5C 188.941,207.37 181.108,193.37 171.5,180.5C 170.295,179.314 168.961,179.314 167.5,180.5C 166.684,178.856 165.35,177.69 163.5,177C 149.504,176.5 135.504,176.333 121.5,176.5C 121.759,202.171 121.926,227.838 122,253.5C 119.207,261.585 117.874,269.918 118,278.5C 107.295,283.625 102.462,280.292 103.5,268.5C 102.178,268.33 101.011,268.663 100,269.5C 98.4018,274.532 95.9018,279.032 92.5,283C 88.7353,285.573 84.7353,286.073 80.5,284.5C 76.3594,278.904 74.526,272.57 75,265.5C 74.6014,227.12 73.9347,188.787 73,150.5C 69.7968,149.23 67.1301,147.23 65,144.5C 62.8426,141.135 63.0092,137.968 65.5,135C 68.5612,132.965 71.8945,131.799 75.5,131.5C 77.3067,103.801 79.1401,76.1343 81,48.5C 82.2725,45.7776 84.4392,44.4443 87.5,44.5C 87.5,47.1667 87.5,49.8333 87.5,52.5C 87.335,55.8499 87.5017,59.1832 88,62.5C 88.904,56.8646 89.404,51.198 89.5,45.5C 90.2891,45.2172 90.9558,44.7172 91.5,44C 87.6397,41.4521 86.1397,37.9521 87,33.5C 90.1039,30.0671 93.9372,27.9004 98.5,27C 120.804,25.4243 143.137,25.0909 165.5,26C 172.862,26.7826 180.196,27.7826 187.5,29C 209.967,34.8111 226.467,47.9777 237,68.5C 249.571,104.63 241.404,135.296 212.5,160.5C 216.922,168.343 221.088,176.343 225,184.5C 230.62,200.314 235.62,216.314 240,232.5C 240.179,229.447 240.679,226.447 241.5,223.5C 244.138,227.111 245.971,231.111 247,235.5C 248.064,245.66 249.231,255.66 250.5,265.5 Z"/></g>
<g><path style="opacity:0.376" fill="#ff4c40" d="M 74.5,26.5 C 74.1034,27.525 73.4368,27.6917 72.5,27C 73.0944,26.5357 73.7611,26.369 74.5,26.5 Z"/></g>
<g><path style="opacity:0.043" fill="#fe4645" d="M 69.5,27.5 C 70.8333,28.1667 70.8333,28.1667 69.5,27.5 Z"/></g>
<g><path style="opacity:0.024" fill="#fe5529" d="M 67.5,28.5 C 68.8333,29.1667 68.8333,29.1667 67.5,28.5 Z"/></g>
<g><path style="opacity:0.051" fill="#fe4e3a" d="M 67.5,29.5 C 66.8333,30.1667 66.8333,30.1667 67.5,29.5 Z"/></g>
<g><path style="opacity:0.004" fill="#ff3628" d="M 66.5,30.5 C 66.0269,31.9063 65.0269,32.573 63.5,32.5C 63.9731,31.0937 64.9731,30.427 66.5,30.5 Z"/></g>
<g><path style="opacity:0.639" fill="#ff493e" d="M 63.5,32.5 C 61.4378,36.8947 58.1045,39.8947 53.5,41.5C 53.7512,39.8297 54.4178,38.3297 55.5,37C 57.4552,36.0467 59.1218,34.7134 60.5,33C 61.448,32.5172 62.448,32.3505 63.5,32.5 Z"/></g>
<g><path style="opacity:1" fill="#ff9188" d="M 89.5,45.5 C 89.404,51.198 88.904,56.8646 88,62.5C 87.5017,59.1832 87.335,55.8499 87.5,52.5C 88.1667,50.1667 88.8333,47.8333 89.5,45.5 Z"/></g>
<g><path style="opacity:1" fill="#ff4b3f" d="M 189.5,82.5 C 193.919,89.441 195.919,97.1077 195.5,105.5C 194.675,108.372 193.841,111.372 193,114.5C 190.342,117.106 188.676,120.106 188,123.5C 192.112,119.61 194.945,114.943 196.5,109.5C 196.451,106.626 196.784,103.792 197.5,101C 196.907,97.8486 196.407,94.682 196,91.5C 193.875,87.5869 192.042,83.5869 190.5,79.5C 199.286,86.4264 202.453,95.4264 200,106.5C 198.316,115.185 193.816,122.018 186.5,127C 183.978,128.843 181.145,130.01 178,130.5C 158.203,129.324 138.37,128.657 118.5,128.5C 118.802,116.961 118.469,105.461 117.5,94C 118.385,91.8434 120.052,91.0101 122.5,91.5C 122.189,84.9102 122.522,78.4102 123.5,72C 138.151,72.1614 152.818,72.4947 167.5,73C 175.792,74.1459 183.125,77.3126 189.5,82.5 Z"/></g>
<g><path style="opacity:1" fill="#ffb7b1" d="M 190.5,79.5 C 192.042,83.5869 193.875,87.5869 196,91.5C 196.407,94.682 196.907,97.8486 197.5,101C 196.784,103.792 196.451,106.626 196.5,109.5C 195.566,108.432 195.232,107.099 195.5,105.5C 195.919,97.1077 193.919,89.441 189.5,82.5C 189.263,81.209 189.596,80.209 190.5,79.5 Z"/></g>
<g><path style="opacity:1" fill="#ff7b72" d="M 195.5,105.5 C 195.232,107.099 195.566,108.432 196.5,109.5C 194.945,114.943 192.112,119.61 188,123.5C 188.676,120.106 190.342,117.106 193,114.5C 193.841,111.372 194.675,108.372 195.5,105.5 Z"/></g>
<g><path style="opacity:1" fill="#ff9790" d="M 195.5,125.5 C 197.49,125.993 197.49,127.16 195.5,129C 192.894,131.658 189.894,133.324 186.5,134C 190,131.666 193,128.832 195.5,125.5 Z"/></g>
<g><path style="opacity:0.753" fill="#ff4b3f" d="M 300.5,152.5 C 305.394,153.54 305.727,155.54 301.5,158.5C 300.534,156.604 300.201,154.604 300.5,152.5 Z"/></g>
<g><path style="opacity:1" fill="#ff5d4f" d="M 116.5,176.5 C 117.496,176.414 118.329,176.748 119,177.5C 119.825,181.211 119.659,184.878 118.5,188.5C 116.745,184.722 116.078,180.722 116.5,176.5 Z"/></g>
<g><path style="opacity:1" fill="#ffbfba" d="M 171.5,180.5 C 172.097,184.367 173.931,188.033 177,191.5C 183.866,204.908 189.366,218.908 193.5,233.5C 189.864,225.38 186.364,217.046 183,208.5C 178.597,198.688 173.43,189.355 167.5,180.5C 168.961,179.314 170.295,179.314 171.5,180.5 Z"/></g>
<g><path style="opacity:0.974" fill="#ff4b3f" d="M 167.5,180.5 C 173.43,189.355 178.597,198.688 183,208.5C 186.364,217.046 189.864,225.38 193.5,233.5C 189.366,218.908 183.866,204.908 177,191.5C 173.931,188.033 172.097,184.367 171.5,180.5C 181.108,193.37 188.941,207.37 195,222.5C 201.248,244.492 205.748,266.825 208.5,289.5C 211.713,289.19 214.713,289.523 217.5,290.5C 210.345,293.569 203.012,296.402 195.5,299C 190.56,299.252 185.727,300.086 181,301.5C 178.858,300.794 176.691,301.128 174.5,302.5C 173.033,302.277 171.533,301.944 170,301.5C 167.286,302.996 164.453,303.996 161.5,304.5C 151.167,304.5 140.833,304.5 130.5,304.5C 117.388,302.306 104.388,299.139 91.5,295C 90.6919,294.692 90.0253,294.192 89.5,293.5C 91.4233,292.692 93.4233,292.192 95.5,292C 93.8333,291.667 92.1667,291.333 90.5,291C 87.2389,288.548 83.9056,286.381 80.5,284.5C 84.7353,286.073 88.7353,285.573 92.5,283C 95.9018,279.032 98.4018,274.532 100,269.5C 101.011,268.663 102.178,268.33 103.5,268.5C 102.462,280.292 107.295,283.625 118,278.5C 117.874,269.918 119.207,261.585 122,253.5C 121.926,227.838 121.759,202.171 121.5,176.5C 135.504,176.333 149.504,176.5 163.5,177C 165.35,177.69 166.684,178.856 167.5,180.5 Z M 103.5,294.5 C 106.073,294.148 108.406,294.648 110.5,296C 107.861,296.588 105.527,296.088 103.5,294.5 Z M 111.5,297.5 C 115.934,296.721 120.434,296.388 125,296.5C 128.908,297.925 132.741,298.759 136.5,299C 147.507,299.233 158.507,299.233 169.5,299C 167.444,299.311 165.444,299.811 163.5,300.5C 162.833,300.167 162.167,299.833 161.5,299.5C 152.303,300.154 143.136,300.821 134,301.5C 132.991,300.342 131.658,299.675 130,299.5C 123.837,298.734 117.67,298.067 111.5,297.5 Z M 174.5,296.5 C 182.246,296.618 182.079,297.285 174,298.5C 173.5,298.333 173,298.167 172.5,298C 173.416,297.722 174.082,297.222 174.5,296.5 Z"/></g>
<g><path style="opacity:1" fill="#ff9890" d="M 193.5,233.5 C 194.117,233.611 194.617,233.944 195,234.5C 195.995,237.126 196.328,239.793 196,242.5C 194.097,239.829 193.264,236.829 193.5,233.5 Z"/></g>
<g><path style="opacity:0.498" fill="#fe4a3d" d="M 47.5,265.5 C 46.8333,266.167 46.8333,266.167 47.5,265.5 Z"/></g>
</svg>
